<?xml version="1.0" encoding="utf-8"?>
<!-- Generator: Adobe Illustrator 21.1.0, SVG Export Plug-In . SVG Version: 6.00 Build 0)  -->
<svg version="1.1" id="Layer_1" xmlns="http://www.w3.org/2000/svg" xmlns:xlink="http://www.w3.org/1999/xlink" x="0px" y="0px"
	 viewBox="0 0 319.7 305.3" style="enable-background:new 0 0 319.7 305.3;" xml:space="preserve">
<style type="text/css">
	.st0{fill:#2E3192;}
	.st1{fill:none;stroke:#000000;stroke-miterlimit:10;}
	.st2{fill:#CFCFCE;stroke:#000000;stroke-miterlimit:10;}
	.st3{fill:#2E3192;stroke:#000000;stroke-miterlimit:10;}
</style>
<g>
	<g>
		<path class="st0" d="M319.2,152.7c0,15.6-30.7,26.2-35.3,40.3c-4.7,14.6,13.7,41.2,4.9,53.4c-8.9,12.3-40,2.9-52.3,11.8
			c-12.2,8.9-12.8,41.4-27.4,46.1c-14.1,4.6-33.6-21.2-49.3-21.2c-15.6,0-35.2,25.8-49.3,21.2C96,299.5,95.4,267,83.2,258.2
			c-12.3-8.9-43.4,0.5-52.3-11.8c-8.9-12.2,9.6-38.8,4.9-53.4c-4.6-14.1-35.3-24.7-35.3-40.3c0-15.6,30.7-26.2,35.3-40.3
			c4.7-14.6-13.7-41.2-4.9-53.4c8.9-12.3,40-2.9,52.3-11.8C95.4,38.3,96,5.8,110.6,1c14.1-4.6,33.6,21.2,49.3,21.2
			c15.6,0,35.2-25.8,49.3-21.2c14.6,4.7,15.2,37.2,27.4,46.1c12.3,8.9,43.4-0.5,52.3,11.8c8.9,12.2-9.6,38.8-4.9,53.4
			C288.5,126.4,319.2,137,319.2,152.7z"/>
		<path class="st1" d="M319.2,152.7c0,15.6-30.7,26.2-35.3,40.3c-4.7,14.6,13.7,41.2,4.9,53.4c-8.9,12.3-40,2.9-52.3,11.8
			c-12.2,8.9-12.8,41.4-27.4,46.1c-14.1,4.6-33.6-21.2-49.3-21.2c-15.6,0-35.2,25.8-49.3,21.2C96,299.5,95.4,267,83.2,258.2
			c-12.3-8.9-43.4,0.5-52.3-11.8c-8.9-12.2,9.6-38.8,4.9-53.4c-4.6-14.1-35.3-24.7-35.3-40.3c0-15.6,30.7-26.2,35.3-40.3
			c4.7-14.6-13.7-41.2-4.9-53.4c8.9-12.3,40-2.9,52.3-11.8C95.4,38.3,96,5.8,110.6,1c14.1-4.6,33.6,21.2,49.3,21.2
			c15.6,0,35.2-25.8,49.3-21.2c14.6,4.7,15.2,37.2,27.4,46.1c12.3,8.9,43.4-0.5,52.3,11.8c8.9,12.2-9.6,38.8-4.9,53.4
			C288.5,126.4,319.2,137,319.2,152.7z"/>
	</g>
	<circle class="st2" cx="159.9" cy="152.7" r="99.1"/>
	<g>
		<path class="st3" d="M125.2,182.3c6.3,6.3,9.9,12.5,10.6,18.4c0.8,5.9-1.3,11.3-6.1,16.1l-9.4,9.4L82,187.9l10.2-10.2
			c4.5-4.5,9.6-6.3,15.3-5.5C113.4,173,119.3,176.4,125.2,182.3z M118.1,189.9c-8.6-8.6-15.2-10.5-19.9-5.8l-2.9,2.9l25.9,25.9
			l2.3-2.3c2.6-2.6,3.4-5.6,2.5-9C125.1,198.1,122.5,194.2,118.1,189.9z"/>
		<path class="st3" d="M168.5,178.1l-11.9-7.5l-10,10l7.5,11.9l-7.1,7.1l-29-48l9.7-9.7l48,29L168.5,178.1z M148.9,165.7l-11-6.9
			c-0.7-0.4-2.3-1.5-4.9-3.3c-2.6-1.7-4.3-2.9-5.1-3.6c1.3,1.7,2.6,3.7,4.1,5.8c1.5,2.2,4.7,7.2,9.7,15.1L148.9,165.7z"/>
		<path class="st3" d="M205.8,140.8l-8.7,8.7l-39.6-15.9l-0.3,0.3c2.6,1.7,5,3.7,7.5,6.2l20.9,20.9l-6.6,6.6l-38.3-38.3l8.8-8.8
			l39.2,15.7l0.3-0.3c-2.2-1.5-4.5-3.5-7.1-6.1L161,109l6.6-6.6L205.8,140.8z"/>
		<path class="st3" d="M219.8,88.4c6.3,6.3,10,12.4,11.1,18.2c1,5.8-0.7,10.9-5.1,15.3c-4.4,4.4-9.5,6.1-15.3,5.1
			c-5.8-1-11.9-4.7-18.3-11.1c-6.3-6.3-10-12.4-11-18.2s0.7-10.9,5.2-15.3c4.4-4.4,9.5-6.1,15.3-5.1
			C207.4,78.4,213.4,82.1,219.8,88.4z M199.5,108.7c4.4,4.4,8.2,7.1,11.6,8.3c3.4,1.2,6.2,0.7,8.3-1.4c4.3-4.3,2-10.9-7-19.9
			c-8.9-8.9-15.6-11.3-19.8-7c-2.2,2.2-2.7,4.9-1.5,8.3C192.3,100.4,195.1,104.3,199.5,108.7z"/>
	</g>
</g>
</svg>
